<svg width="32" height="32" viewBox="0 0 32 32" fill="none" xmlns="http://www.w3.org/2000/svg">
  <defs>
    <linearGradient id="grad1" x1="0%" y1="0%" x2="100%" y2="100%">
      <stop offset="0%" style="stop-color:#6366f1;stop-opacity:1" />
      <stop offset="50%" style="stop-color:#8b5cf6;stop-opacity:1" />
      <stop offset="100%" style="stop-color:#ec4899;stop-opacity:1" />
    </linearGradient>
  </defs>
  
  <!-- Background circle -->
  <circle cx="16" cy="16" r="15" fill="url(#grad1)" stroke="#ffffff" stroke-width="1"/>
  
  <!-- Letter F -->
  <path d="M10 8h8v2h-6v4h5v2h-5v6h-2V8z" fill="white"/>
  
  <!-- Letter B -->
  <path d="M18 8h6c1.1 0 2 .9 2 2v2c0 1.1-.9 2-2 2h-2v2h4v2h-4v2h2c1.1 0 2 .9 2 2v2c0 1.1-.9 2-2 2h-6V8zm2 2v4h4v-4h-4zm0 6v4h4v-4h-4z" fill="white"/>
  
  <!-- Small decorative dots -->
  <circle cx="8" cy="8" r="1" fill="white" opacity="0.7"/>
  <circle cx="24" cy="8" r="1" fill="white" opacity="0.7"/>
  <circle cx="8" cy="24" r="1" fill="white" opacity="0.7"/>
  <circle cx="24" cy="24" r="1" fill="white" opacity="0.7"/>
</svg> 